<svg version="1" xmlns="http://www.w3.org/2000/svg" width="346.667" height="346.667" viewBox="0 0 260.000000 260.000000"><path d="M11.4 75.5c-.4.8-.1 2.1.5 2.9.6.7.7 1.6.3 2-.8.9-1.1 16.5-.3 16.7.3.1 24.6.2 53.9.3 35 .1 53.2-.2 53.3-.9.1-1.2.1-19.4 0-21.3-.1-.6-.8-1.2-1.7-1.2-.9 0-1.2.5-.8 1.2.6 1 .4 1-.7 0-.7-.6-2.4-1.2-3.7-1.2-1.6 0-2.1.4-1.6 1.2.5.9.2.9-.9-.1-1.4-1.1-1.7-1.1-1.7 0s-.2 1.1-.9.1c-.9-1.6-9.1-1.3-9.1.2 0 .8-.3.8-.8.1-1-1.5-11.4-1.7-10.5-.2.4.7-.1.6-1-.2-1.4-1.1-1.7-1.1-1.7 0 0 1-.2 1.1-.8.2-.9-1.4-5.2-1.3-5.2.2 0 .5-.4.4-.8-.2-.9-1.4-6.3-1.3-7.4.2-.5.7-.8.6-.8 0s-1.2-1.2-2.7-1.3c-2.2-.1-2.4 0-1.3.8.9.6 1 1 .3 1-.6 0-1.5-.5-1.9-1.1-.4-.8-.9-.7-1.5.2-.6 1-.9 1.1-.9.1 0-1.4-6.1-1.2-7.2.3-.5.7-.8.6-.8 0s-1.6-1.2-3.6-1.3c-2.7-.2-3.4 0-2.8 1 .6 1 .3.9-.9-.1-1.4-1.1-1.7-1.1-1.7 0s-.2 1.1-.9.1c-.9-1.6-9.1-1.3-9.1.2 0 .8-.3.8-.8.1-1-1.5-11.4-1.7-10.5-.2.4.7-.1.6-1-.2-1.4-1.1-1.7-1.1-1.7 0s-.2 1.1-.8.1c-.9-1.3-3.8-1.2-6.1.2-1 .6-1.2.5-.7-.2.4-.7.5-1.2.1-1.2-.3 0-.8.7-1.1 1.5zM141.4 74.8c-.8.5-1.2 105.2-.5 109.4.2 1.3 4.6.9 6-.5 1.1-.9 1.3-.9.7 0-.9 1.7.6 1.7 2.3.1 1.1-1 1.3-1 .7-.1-.9 1.6.6 1.7 2.1.2.8-.8 1.3-.8 1.7 0 .4.6 1.2 1.1 1.7 1.1.6 0 .7-.5.4-1.1-.4-.6.2-.5 1.4.3 1.8 1.1 2.2 1 3.5-.7.8-1.1 1.2-2.3 1-2.6-.2-.4-.4-24.6-.4-53.8l-.1-53.2-3.9.3c-2.2.1-4 .7-4 1.2 0 .8-.3.8-.8.1-.8-1.2-10.3-1.7-11.8-.7zM183.9 74.2c-.1.2-.3 15-.4 33-.1 22.7.2 32.8.9 33.1.6.1 5.4.3 10.6.2l9.5-.1.2-33 .2-33.1-3.5-.1c-2.5-.1-3.3.2-2.7 1.1.4.8.1.7-1-.2-1.4-1.1-1.7-1.1-1.7 0 0 .9-.3 1-.8.3-.9-1.5-7.3-1.4-6.5 0 .3.6 0 .5-.8-.2-1.1-1-3.6-1.7-4-1zM226.6 77.2c-.3 1.8-.4 7.1-.3 11.8l.2 8.5h10.4c9.5.1 10.4-.1 11.1-2 .4-1.1.3-2.6-.2-3.3-.7-.8-.7-1.2.3-1.2s1-.3.1-1.2c-.7-.7-.8-1.7-.2-2.8.5-.9.5-2.2 0-3-.5-.8-.4-2.2.1-3.2.7-1.3.6-1.8-.3-1.8-1 0-1-.2-.1-.8.8-.5.8-1.2-.3-2.7-1.7-2.2-2.3-2.3-3.5-.3-.6.9-.9 1-.9.1 0-1.5-5-1.3-5 .2 0 .5-.4.4-.8-.2-.9-1.4-6.3-1.3-7.4.2-.5.6-.8.5-.8-.3 0-2.6-1.9-1-2.4 2zM13.9 118.8l-2.6.3.1 10.7.1 10.7h32.3c17.7 0 32.2-.2 32.3-.5.5-3.3.2-20.3-.4-20.7-.9-.6-57.4-1-61.8-.5zM12.1 162c-1 .6-.8 21.6.2 22.6.4.4 1.8.2 3.3-.4 1.4-.7 2.3-.8 1.9-.2-.7 1.1 1.8 1.4 2.9.3.3-.4 1.7-.8 2.9-1 1.7-.2 1.9-.1.7.7-1.2.8-1.1 1 .8 1 1.2 0 2.2-.6 2.2-1.3 0-.8.4-.7 1 .3.8 1.2 1.1 1.3 1.9.1.7-1.1.9-1.1 1.3 0 .3.8.9 1.1 1.3.6.9-.8 1.3-21.4.5-22.5-.6-.8-19.8-1-20.9-.2z"/></svg>